<svg width="1126" height="627" viewBox="0 0 1126 627" fill="none" xmlns="http://www.w3.org/2000/svg">
<g clip-path="url(#clip0)">
<path d="M957.309 291.75C957.309 291.75 940.591 194.352 706.53 126.797C472.469 59.2419 312.639 86.8578 288.564 131.845C264.489 176.832 373.662 222.71 501.727 232.955C629.791 243.2 638.151 228.055 671.922 296.798C705.694 365.541 773.07 449.131 874.385 419.14C975.7 389.148 964.331 312.982 957.309 291.75Z" stroke="#C8B5FF" stroke-width="0.5" stroke-miterlimit="10"/>
<path d="M883.93 261.809C883.93 261.809 872.141 193.174 707.093 145.568C542.044 97.9631 429.34 117.424 412.364 149.126C395.387 180.828 472.37 213.157 562.675 220.377C652.98 227.596 658.875 216.924 682.689 265.366C706.503 313.808 754.013 372.713 825.456 351.579C896.898 330.444 888.881 276.77 883.93 261.809Z" stroke="#C8B5FF" stroke-width="0.5" stroke-miterlimit="10"/>
<path d="M821.979 240.125C821.979 240.125 814.218 195.039 705.57 163.767C596.922 132.495 522.731 145.278 511.556 166.103C500.381 186.929 551.057 208.166 610.503 212.908C669.949 217.651 673.83 210.64 689.506 242.462C705.182 274.284 736.457 312.979 783.487 299.096C830.516 285.212 825.238 249.954 821.979 240.125Z" stroke="#C8B5FF" stroke-width="0.5" stroke-miterlimit="10"/>
<path d="M1042.41 297.978C1042.41 297.978 971.519 125.601 552.383 64.4304C133.247 3.25968 164.176 130.649 181.062 154.256C197.948 177.864 279.367 240.519 449.563 259.227C619.759 277.934 608.557 254.178 669.079 348.31C729.6 442.442 773.069 506.582 874.384 504.8C975.699 503.019 1086.71 434.127 1042.41 297.978Z" stroke="#C8B5FF" stroke-width="0.5" stroke-miterlimit="10"/>
<path d="M1112.46 308.971C1112.46 308.971 1075.84 159.014 641.159 54.3403C142.776 -64.4378 16.5503 56.8643 5.85035 113.729C-4.84958 170.594 78.9107 242.455 150.801 276.158C222.691 309.862 440.535 282.097 465.111 284.176C489.688 286.255 588.829 296.796 638.149 351.731C687.469 406.666 715.389 527.82 743.644 560.335C770.175 586.023 804.076 604.817 841.714 614.703C879.353 624.589 919.311 625.196 957.308 616.458C1051.6 591.514 1153.58 436.36 1112.46 308.971Z" stroke="#C8B5FF" stroke-width="0.5" stroke-miterlimit="10"/>
<path d="M54.37 479.93C113.328 516.433 184.172 543.635 261.527 559.47C301.951 567.876 345.591 566.667 384.795 556.055C423.998 545.443 456.261 526.105 475.927 501.432C511.274 460.711 506.928 400.771 456.515 372.227C406.102 343.684 288.761 325.417 207.927 336.073C127.092 346.729 -43.269 409.904 54.37 479.93Z" stroke="#C8B5FF" stroke-width="0.5" stroke-miterlimit="10"/>
<path d="M163.287 441.401C163.287 441.401 154.93 482.672 267.519 498.968C380.107 515.263 414 442.772 379.411 412.923C348.768 386.272 304.661 384.444 245.001 392.364C161.43 404.395 163.287 441.401 163.287 441.401Z" stroke="#C8B5FF" stroke-width="0.5" stroke-miterlimit="10"/>
<path d="M118.251 473.382C165.49 502.596 222.253 524.366 284.232 537.039C316.622 543.767 351.588 542.8 382.998 534.306C414.409 525.813 440.26 510.337 456.017 490.591C484.338 458 480.856 410.028 440.463 387.185C400.071 364.341 306.053 349.721 241.286 358.249C176.518 366.778 40.0193 417.338 118.251 473.382Z" stroke="#C8B5FF" stroke-width="0.5" stroke-miterlimit="10"/>
</g>
<defs>
<clipPath id="clip0">
<rect width="627" height="1126" fill="white" transform="translate(1126) rotate(90)"/>
</clipPath>
</defs>
</svg>
