<svg width="724" height="673" viewBox="0 0 724 673" fill="none" xmlns="http://www.w3.org/2000/svg">
<path d="M539.384 312.877C539.384 312.877 520.691 207.09 258.983 133.717C-2.72443 60.344 -181.433 90.3383 -208.352 139.2C-235.27 188.062 -113.202 237.891 29.989 249.018C173.18 260.145 182.527 243.696 220.288 318.36C258.048 393.023 333.383 483.812 446.665 451.238C559.947 418.663 547.235 335.937 539.384 312.877Z" stroke="#C8B5FF" stroke-width="0.5" stroke-miterlimit="10"/>
<path d="M457.337 280.357C457.337 280.357 444.155 205.811 259.612 154.105C75.0687 102.4 -50.9479 123.537 -69.9295 157.969C-88.9111 192.401 -2.83488 227.515 98.1366 235.356C199.108 243.197 205.699 231.606 232.326 284.221C258.953 336.835 312.075 400.813 391.956 377.858C471.837 354.903 462.873 296.607 457.337 280.357Z" stroke="#C8B5FF" stroke-width="0.5" stroke-miterlimit="10"/>
<path d="M388.068 256.806C388.068 256.806 379.391 207.836 257.91 173.871C136.429 139.906 53.4742 153.79 40.979 176.409C28.4838 199.028 85.1461 222.094 151.614 227.245C218.081 232.396 222.42 224.782 239.948 259.344C257.476 293.907 292.445 335.934 345.029 320.855C397.613 305.776 391.713 267.481 388.068 256.806Z" stroke="#C8B5FF" stroke-width="0.5" stroke-miterlimit="10"/>
<path d="M634.532 319.641C634.532 319.641 555.272 132.418 86.6285 65.9794C-382.015 -0.459666 -347.432 137.901 -328.552 163.542C-309.671 189.182 -218.635 257.233 -28.3359 277.552C161.963 297.871 149.438 272.069 217.108 374.308C284.778 476.547 333.381 546.211 446.663 544.276C559.945 542.341 684.069 467.516 634.532 319.641Z" stroke="#C8B5FF" stroke-width="0.5" stroke-miterlimit="10"/>
<path d="M712.857 331.581C712.857 331.581 671.918 168.709 185.89 55.0204C-371.36 -73.9875 -512.495 57.7617 -524.459 119.524C-536.423 181.287 -442.769 259.336 -362.388 295.942C-282.006 332.548 -38.4309 302.393 -10.9516 304.65C16.5277 306.908 127.379 318.358 182.525 378.024C237.671 437.69 268.888 569.278 300.48 604.594C330.145 632.494 368.05 652.906 410.135 663.644C452.219 674.382 496.897 675.041 539.382 665.55C644.813 638.458 758.842 469.942 712.857 331.581Z" stroke="#C8B5FF" stroke-width="0.5" stroke-miterlimit="10"/>
</svg>
