<svg width="54" height="54" viewBox="0 0 54 54" fill="none" xmlns="http://www.w3.org/2000/svg">
<path d="M13 36H9V1C9 0.447 8.552 0 8 0C7.448 0 7 0.447 7 1V36H3C2.448 36 2 36.447 2 37V49C2 49.553 2.448 50 3 50H7V53C7 53.553 7.448 54 8 54C8.552 54 9 53.553 9 53V50H13C13.552 50 14 49.553 14 49V37C14 36.447 13.552 36 13 36ZM12 48H4V38H12V48Z" fill="#5A3FA5"/>
<path d="M32 20H28V1C28 0.447 27.552 0 27 0C26.448 0 26 0.447 26 1V20H22C21.448 20 21 20.447 21 21V33C21 33.553 21.448 34 22 34H26V53C26 53.553 26.448 54 27 54C27.552 54 28 53.553 28 53V34H32C32.552 34 33 33.553 33 33V21C33 20.447 32.552 20 32 20ZM31 32H23V22H31V32Z" fill="#5A3FA5"/>
<path d="M51 4H47V1C47 0.447 46.552 0 46 0C45.448 0 45 0.447 45 1V4H41C40.448 4 40 4.447 40 5V17C40 17.553 40.448 18 41 18H45V53C45 53.553 45.448 54 46 54C46.552 54 47 53.553 47 53V18H51C51.552 18 52 17.553 52 17V5C52 4.447 51.552 4 51 4ZM50 16H42V6H50V16Z" fill="#5A3FA5"/>
</svg>
