<svg width="156" height="133" viewBox="0 0 156 133" fill="none" xmlns="http://www.w3.org/2000/svg">
<path d="M34.6918 101.151H28.6207V111.487H25.7197V98.7478H34.7217L34.6918 101.151Z" fill="#654CAA"/>
<path d="M46.4205 109.143V111.529H36.5273V98.7478H46.1813V101.133H39.4762V103.901H45.3977V106.161H39.4762V109.143H46.4205Z" fill="#654CAA"/>
<path d="M47.8506 105.118C47.8506 101.33 50.8413 98.5273 54.8667 98.5273C58.8922 98.5273 61.8589 101.313 61.8589 105.118C61.8589 108.923 58.8683 111.708 54.8667 111.708C50.8652 111.708 47.8506 108.905 47.8506 105.118ZM58.8443 105.118C58.8267 104.333 58.5771 103.57 58.1268 102.926C57.6765 102.282 57.0455 101.784 56.313 101.496C55.5804 101.207 54.7788 101.141 54.0086 101.305C53.2384 101.469 52.5338 101.856 51.9831 102.417C51.4324 102.979 51.0601 103.69 50.9129 104.461C50.7656 105.233 50.8499 106.03 51.1552 106.754C51.4605 107.478 51.9733 108.096 52.6293 108.53C53.2852 108.965 54.0552 109.197 54.8428 109.197C55.3822 109.216 55.9196 109.123 56.4209 108.924C56.9223 108.725 57.3766 108.424 57.7551 108.04C58.1336 107.656 58.4281 107.199 58.6197 106.696C58.8113 106.192 58.896 105.655 58.8683 105.118H58.8443Z" fill="#654CAA"/>
<path d="M69.085 106.358H67.0454V111.487H64.1025V98.7478H67.0454V103.901H69.1628L72.5183 98.7478H75.6406L71.4536 104.897L75.7602 111.487H72.4047L69.085 106.358Z" fill="#654CAA"/>
<path d="M85.534 108.762H79.6005L78.4701 111.487H75.4375L81.1318 98.7478H84.0567L89.7689 111.487H86.6645L85.534 108.762ZM84.601 106.519L82.5793 101.64L80.5516 106.519H84.601Z" fill="#654CAA"/>
<path d="M102.562 103.37C102.562 106.209 100.427 107.974 97.0113 107.974H94.4393V111.487H91.4785V98.7478H97.0113C100.427 98.7478 102.562 100.513 102.562 103.37ZM99.5713 103.37C99.5713 101.968 98.6621 101.151 96.8557 101.151H94.4632V105.565H96.8557C98.6561 105.565 99.5653 104.754 99.5653 103.37H99.5713Z" fill="#654CAA"/>
<path d="M113.933 101.152H109.842V111.487H106.923V101.152H102.88V98.7659H113.957L113.933 101.152Z" fill="#654CAA"/>
<path d="M123.814 108.762H117.881L116.75 111.487H113.718L119.412 98.7478H122.337L128.049 111.487H124.945L123.814 108.762ZM122.881 106.519L120.824 101.64L118.802 106.519H122.881Z" fill="#654CAA"/>
<path d="M65.8428 21.3513C68.1453 21.3513 70.0118 20.39 70.0118 19.2042C70.0118 18.0184 68.1453 17.0571 65.8428 17.0571C63.5404 17.0571 61.6738 18.0184 61.6738 19.2042C61.6738 20.39 63.5404 21.3513 65.8428 21.3513Z" fill="#654CAA"/>
<path d="M86.3459 22.995C86.8821 21.9365 85.6507 20.2394 83.5956 19.2042C81.5404 18.1691 79.4397 18.1879 78.9035 19.2464C78.3673 20.3048 79.5987 22.002 81.6538 23.0371C83.709 24.0723 85.8097 24.0534 86.3459 22.995Z" fill="#654CAA"/>
<path d="M79.3987 26.8679C80.2789 25.1303 79.1138 22.7754 76.7962 21.6081C74.4786 20.4408 71.8862 20.9031 71.006 22.6407C70.1257 24.3783 71.2909 26.7332 73.6085 27.9005C75.9261 29.0678 78.5184 28.6055 79.3987 26.8679Z" fill="#654CAA"/>
<path d="M94.274 31.0057C95.1149 30.1672 94.4767 28.1714 92.8486 26.548C91.2205 24.9246 89.219 24.2883 88.3781 25.1268C87.5372 25.9653 88.1753 27.9611 89.8034 29.5845C91.4315 31.2079 93.433 31.8442 94.274 31.0057Z" fill="#654CAA"/>
<path d="M88.5069 36.0952C89.857 34.749 89.5162 32.2264 87.7456 30.4609C85.975 28.6954 83.4452 28.3556 82.095 29.7018C80.7449 31.0481 81.0857 33.5706 82.8563 35.3361C84.6269 37.1016 87.1568 37.4414 88.5069 36.0952Z" fill="#654CAA"/>
<path d="M99.9343 39.878C101.011 39.3738 101.09 37.2806 100.111 35.2026C99.132 33.1245 97.4658 31.8487 96.3894 32.3528C95.313 32.8569 95.234 34.9502 96.2129 37.0282C97.1918 39.1062 98.8579 40.3821 99.9343 39.878Z" fill="#654CAA"/>
<path d="M99.8711 55.7229C101.06 55.7229 102.024 53.8618 102.024 51.5659C102.024 49.2701 101.06 47.4089 99.8711 47.4089C98.6818 47.4089 97.7178 49.2701 97.7178 51.5659C97.7178 53.8618 98.6818 55.7229 99.8711 55.7229Z" fill="#654CAA"/>
<path d="M92.375 74.9566C94.0031 73.3332 94.6412 71.3374 93.8003 70.499C92.9594 69.6605 90.9579 70.2968 89.3298 71.9202C87.7017 73.5436 87.0635 75.5393 87.9044 76.3778C88.7454 77.2163 90.7469 76.58 92.375 74.9566Z" fill="#654CAA"/>
<path d="M99.7249 65.9537C100.793 63.9198 100.935 61.8932 100.043 61.4272C99.1503 60.9611 97.5608 62.232 96.4927 64.2659C95.4245 66.2997 95.2822 68.3263 96.1747 68.7924C97.0673 69.2584 98.6568 67.9875 99.7249 65.9537Z" fill="#654CAA"/>
<path d="M83.5936 82.1434C85.6613 81.1334 86.9134 79.4513 86.3902 78.3865C85.867 77.3216 83.7667 77.2771 81.699 78.2871C79.6313 79.2972 78.3792 80.9792 78.9024 82.0441C79.4256 83.109 81.5259 83.1535 83.5936 82.1434Z" fill="#654CAA"/>
<path d="M66.1007 84.5473C68.4031 84.5473 70.2697 83.5861 70.2697 82.4003C70.2697 81.2145 68.4031 80.2532 66.1007 80.2532C63.7982 80.2532 61.9316 81.2145 61.9316 82.4003C61.9316 83.5861 63.7982 84.5473 66.1007 84.5473Z" fill="#654CAA"/>
<path d="M97.0669 60.4115C98.1082 58.1808 97.5345 55.7143 95.7855 54.9026C94.0365 54.0908 91.7744 55.2412 90.7331 57.4719C89.6918 59.7026 90.2655 62.169 92.0145 62.9808C93.7635 63.7925 96.0256 62.6422 97.0669 60.4115Z" fill="#654CAA"/>
<path d="M55.2501 65.1702C57.9489 65.1702 60.1368 62.9886 60.1368 60.2975C60.1368 57.6064 57.9489 55.4248 55.2501 55.4248C52.5512 55.4248 50.3633 57.6064 50.3633 60.2975C50.3633 62.9886 52.5512 65.1702 55.2501 65.1702Z" fill="#654CAA"/>
<path d="M55.1299 46.2161C57.8288 46.2161 60.0167 44.0345 60.0167 41.3434C60.0167 38.6523 57.8288 36.4707 55.1299 36.4707C52.431 36.4707 50.2432 38.6523 50.2432 41.3434C50.2432 44.0345 52.431 46.2161 55.1299 46.2161Z" fill="#654CAA"/>
<path d="M65.7051 36.8882C68.404 36.8882 70.5919 34.7066 70.5919 32.0155C70.5919 29.3244 68.404 27.1428 65.7051 27.1428C63.0062 27.1428 60.8184 29.3244 60.8184 32.0155C60.8184 34.7066 63.0062 36.8882 65.7051 36.8882Z" fill="#654CAA"/>
<path d="M76.0958 46.1504C78.7946 46.1504 80.9825 43.9688 80.9825 41.2777C80.9825 38.5866 78.7946 36.405 76.0958 36.405C73.3969 36.405 71.209 38.5866 71.209 41.2777C71.209 43.9688 73.3969 46.1504 76.0958 46.1504Z" fill="#654CAA"/>
<path d="M65.4004 55.2932C68.0993 55.2932 70.2872 53.1117 70.2872 50.4205C70.2872 47.7294 68.0993 45.5479 65.4004 45.5479C62.7016 45.5479 60.5137 47.7294 60.5137 50.4205C60.5137 53.1117 62.7016 55.2932 65.4004 55.2932Z" fill="#654CAA"/>
<path d="M76.4004 64.7407C79.0993 64.7407 81.2872 62.5592 81.2872 59.868C81.2872 57.1769 79.0993 54.9954 76.4004 54.9954C73.7016 54.9954 71.5137 57.1769 71.5137 59.868C71.5137 62.5592 73.7016 64.7407 76.4004 64.7407Z" fill="#654CAA"/>
<path d="M86.4844 55.5977C89.1833 55.5977 91.3712 53.4161 91.3712 50.725C91.3712 48.0339 89.1833 45.8523 86.4844 45.8523C83.7855 45.8523 81.5977 48.0339 81.5977 50.725C81.5977 53.4161 83.7855 55.5977 86.4844 55.5977Z" fill="#654CAA"/>
<path d="M94.9841 46.3419C96.7477 45.9349 97.7633 43.8204 97.2523 41.619C96.7414 39.4175 94.8975 37.9628 93.1338 38.3698C91.3702 38.7768 90.3546 40.8913 90.8655 43.0927C91.3765 45.2942 93.2204 46.7489 94.9841 46.3419Z" fill="#654CAA"/>
<path d="M65.6397 73.8836C68.3386 73.8836 70.5265 71.8382 70.5265 69.3151C70.5265 66.792 68.3386 64.7466 65.6397 64.7466C62.9408 64.7466 60.7529 66.792 60.7529 69.3151C60.7529 71.8382 62.9408 73.8836 65.6397 73.8836Z" fill="#654CAA"/>
<path d="M75.649 80.0754C78.3248 79.7237 80.2776 77.8025 80.0107 75.7843C79.7439 73.7661 77.3585 72.4152 74.6828 72.767C72.007 73.1187 70.0542 75.0399 70.321 77.058C70.5878 79.0762 72.9733 80.4271 75.649 80.0754Z" fill="#654CAA"/>
<path d="M88.1651 70.136C89.775 67.9761 89.7518 65.2408 88.1132 64.0266C86.4747 62.8123 83.8413 63.5789 82.2314 65.7388C80.6215 67.8987 80.6447 70.634 82.2832 71.8483C83.9218 73.0625 86.5552 72.2959 88.1651 70.136Z" fill="#654CAA"/>
</svg>
